<?xml version="1.0" encoding="utf-8"?>
<!-- Generator: Adobe Illustrator 21.1.0, SVG Export Plug-In . SVG Version: 6.00 Build 0)  -->
<svg version="1.1" id="Layer_1" xmlns="http://www.w3.org/2000/svg" xmlns:xlink="http://www.w3.org/1999/xlink" x="0px" y="0px"
	 viewBox="0 0 964 320" style="enable-background:new 0 0 964 320;" xml:space="preserve">
<style type="text/css">
	.st0{fill:#FFFFFF;}
	.st1{fill:#0F52A4;}
</style>
<path class="st0" d="M80.4,320C36.1,320,0,283.9,0,239.6V80.4C0,36.1,36.1,0,80.4,0h803.2C927.9,0,964,36.1,964,80.4v159.2
	c0,44.3-36.1,80.4-80.4,80.4H80.4z"/>
<path class="st1" d="M883.6,298H80.4C48.2,298,22,271.8,22,239.6V80.4C22,48.2,48.2,22,80.4,22h803.2c32.3,0,58.4,26.2,58.4,58.4
	v159.2C942,271.8,915.8,298,883.6,298z"/>
<g>
	<path class="st0" d="M169.4,143.7c0.3-1.1,0.5-2.3,0.5-3.6c0-3.8-1.7-6.8-5.2-9.1c-3.5-2.3-7.8-3.4-13.1-3.4
		c-6.6,0-12.2,1.5-16.7,4.4c-4.6,3-6.8,6.7-6.8,11.2c0,1.8,0.6,3.6,1.7,5.3c1.1,1.7,3.1,2.9,5.9,3.6l25.1,6.5
		c8.9,2.3,15.4,5.5,19.8,9.7c4.3,4.2,6.5,9.6,6.5,16.1c0,12.5-5,22.4-15,29.6c-10,7.2-22.6,10.8-37.6,10.8
		c-11.8,0-21.4-2.6-28.9-7.7c-7.4-5.2-11.1-12.1-11.1-20.9c0-2.6,0.3-5.4,1.1-8.3h22.1c-0.3,1.2-0.5,2.4-0.5,3.7
		c0,4.7,1.8,8.2,5.3,10.6c3.5,2.4,8.5,3.6,14.8,3.6c8.3,0,14.7-1.4,19.4-4.2c4.7-2.8,7-6.7,7-11.8c0-2.9-0.9-5.1-2.6-6.8
		c-1.7-1.7-4.1-2.9-7.2-3.7l-24.5-6.1c-9-2.3-15.2-5.3-18.7-9c-3.5-3.7-5.3-8.7-5.3-14.9c0-12.2,4.8-22.1,14.5-29.6
		c9.7-7.5,21.3-11.2,35-11.2c10.2,0,19,2.4,26.4,7.2c7.4,4.8,11.1,11.3,11.1,19.5c0,3.1-0.5,6-1.5,8.6H169.4z"/>
	<path class="st0" d="M212.9,139.9h20.6l-2.6,12h0.3c7.3-9.4,15.8-14.1,25.6-14.1c10.4,0,17,4.3,20,12.8
		c7.7-8.5,16.4-12.8,26.2-12.8c6.8,0,12.2,1.8,16.2,5.5c4.1,3.7,6.1,8.7,6.1,15.2c0,2-0.4,4.9-1.1,8.6l-11.6,54.8h-21.5l10.8-50.9
		c0.4-2,0.6-3.7,0.6-5.3c0-3.3-0.9-5.7-2.6-7.3c-1.7-1.6-4.3-2.4-7.7-2.4c-4.4,0-8.1,1.9-11.1,5.6c-3.1,3.7-5.3,8.8-6.7,15.3
		l-9.5,45.1h-21.5l10.8-50.9c0.4-2,0.6-3.7,0.6-5.3c0-3.3-0.9-5.7-2.6-7.3c-1.7-1.6-4.3-2.4-7.7-2.4c-4.4,0-8.2,1.9-11.4,5.7
		c-3.3,3.8-5.5,9.3-6.6,16.3l-9.3,43.9h-21.5L212.9,139.9z"/>
	<path class="st0" d="M341.2,166.5c5.1-19.1,19.1-28.7,42-28.7c9,0,16.3,1.6,22,4.8s8.6,7.7,8.6,13.4c0,1.4-0.2,2.9-0.5,4.6
		l-9.8,47.1c-0.4,1.6-0.5,3.5-0.5,5.7c0,3,1,4.8,2.9,5.3l-0.7,3.2h-22.9c-0.5-2.6-0.5-5.8-0.2-9.7c-7.9,7.9-17.7,11.9-29.3,11.9
		c-6.9,0-12.3-1.7-16.1-5.2c-3.9-3.5-5.8-8.4-5.8-14.9c0-7.9,2.7-14.5,8.1-19.7c5.4-5.3,12.3-8.5,20.7-9.7l23-3.1
		c6.2-0.8,9.2-3.8,9.2-8.9c0-2.7-1.1-4.6-3.2-5.9c-2.2-1.3-5-1.9-8.5-1.9c-9.8,0-15.8,3.9-18,11.7H341.2z M387.8,182.2
		c-3.2,2-9.9,3.7-20.2,5c-9.8,1.3-14.6,5.8-14.6,13.5c0,2.6,0.8,4.5,2.5,5.9c1.7,1.4,4,2.1,7,2.1c5.1,0,9.9-1.5,14.6-4.6
		c4.7-3.1,7.5-6.6,8.3-10.5L387.8,182.2z"/>
	<path class="st0" d="M437.7,139.9h20.6l-3,14.2h0.3c7.2-10.9,15.5-16.3,25-16.3c1.8,0,3.5,0.1,5,0.3l-4.7,21.9
		c-1.5-0.2-3.4-0.3-5.9-0.3c-13.3,0-21.3,6.5-24.1,19.6l-9.1,42.6h-21.5L437.7,139.9z"/>
	<path class="st0" d="M524.7,139.9H538l-3.3,15.4h-13.4l-9.8,46c-0.2,0.7-0.2,1.2-0.2,1.7c0,1.3,0.5,2.2,1.4,2.7
		c0.9,0.6,2.5,0.8,4.8,0.8c2.3,0,4.4-0.1,6.3-0.3l-3.4,16c-3.5,0.5-7.5,0.8-12.2,0.8c-6.7,0-11.7-1-14.9-3c-3.2-2-4.8-5-4.8-9
		c0-1.8,0.2-3.7,0.7-5.8l10.6-49.8h-11.1l3.3-15.4h11.1l4.7-22.1h21.5L524.7,139.9z"/>
</g>
<g>
	<path class="st0" d="M662.6,146.9c-0.3-19-14.9-29.3-33.4-29.3c-32.8,0-52.3,30.9-52.3,60.4c0,25.7,15.5,38.4,37.4,38.4
		c20.2,0,37.8-14.7,42.7-33.4h6.7c-4.7,22.5-26.6,39-50,39c-21.6,0-43.5-11.5-43.5-44.4c0-30,20.4-65.6,58.8-65.6
		c24.9,0,40.9,14.1,40.3,34.8H662.6z"/>
	<path class="st0" d="M745.4,171.9c0,23.1-14.1,49.4-41.6,49.4c-21.1,0-31.3-12.6-31.3-31.8c0-22.9,15.6-47.3,42.1-47.3
		C733.7,142.2,745.4,153.3,745.4,171.9z M678.2,189.1c0,15.1,7.6,27.3,25.4,27.3c23.9,0,36-24.7,36-44.4c0-14.8-7.7-24.5-23.9-25
		C691.9,146.4,678.2,169.2,678.2,189.1z"/>
	<path class="st0" d="M826,171.9c0,23.1-14.1,49.4-41.6,49.4c-21.1,0-31.3-12.6-31.3-31.8c0-22.9,15.6-47.3,42.1-47.3
		C814.3,142.2,826,153.3,826,171.9z M758.9,189.1c0,15.1,7.6,27.3,25.4,27.3c23.9,0,36-24.7,36-44.4c0-14.8-7.7-24.5-23.9-25
		C772.6,146.4,758.9,169.2,758.9,189.1z"/>
	<path class="st0" d="M853.2,114.5h5.8l-22.6,105h-5.8L853.2,114.5z"/>
</g>
<g>
	<path class="st0" d="M878.7,121.4c1.6,0,3.2,0.4,4.7,1.2c1.5,0.8,2.7,2,3.6,3.5c0.8,1.5,1.3,3.1,1.3,4.8c0,1.6-0.4,3.2-1.3,4.7
		c-0.8,1.5-2,2.7-3.5,3.5c-1.5,0.8-3.1,1.3-4.7,1.3c-1.6,0-3.2-0.4-4.7-1.3c-1.5-0.8-2.7-2-3.5-3.5c-0.8-1.5-1.3-3.1-1.3-4.7
		c0-1.7,0.4-3.3,1.3-4.8c0.9-1.5,2-2.7,3.6-3.5C875.5,121.9,877.1,121.4,878.7,121.4z M878.7,123c-1.3,0-2.6,0.3-3.9,1
		c-1.3,0.7-2.3,1.7-3,2.9c-0.7,1.3-1.1,2.6-1.1,4c0,1.4,0.4,2.7,1.1,3.9c0.7,1.3,1.7,2.2,2.9,2.9c1.3,0.7,2.6,1.1,4,1.1
		c1.4,0,2.7-0.4,4-1.1c1.3-0.7,2.2-1.7,2.9-2.9c0.7-1.3,1-2.6,1-3.9c0-1.4-0.4-2.7-1.1-4c-0.7-1.3-1.7-2.3-3-2.9
		C881.3,123.4,880,123,878.7,123z M874.5,136.2V126h3.5c1.2,0,2.1,0.1,2.6,0.3c0.5,0.2,1,0.5,1.3,1c0.3,0.5,0.5,1,0.5,1.5
		c0,0.7-0.3,1.4-0.8,2c-0.5,0.6-1.2,0.9-2.1,0.9c0.4,0.2,0.7,0.3,0.9,0.5c0.4,0.4,0.9,1.1,1.5,2l1.2,2h-2l-0.9-1.6
		c-0.7-1.3-1.3-2.1-1.7-2.4c-0.3-0.2-0.7-0.4-1.3-0.4h-1v4.4H874.5z M876.1,130.5h2c1,0,1.6-0.1,2-0.4c0.3-0.3,0.5-0.7,0.5-1.1
		c0-0.3-0.1-0.6-0.3-0.8c-0.2-0.2-0.4-0.4-0.7-0.5c-0.3-0.1-0.9-0.2-1.7-0.2h-1.9V130.5z"/>
</g>
</svg>
